<?xml version="1.0" encoding="UTF-8" standalone="no"?>
<svg viewBox="0 0 744.09448819 1052.3622047" xmlns="http://www.w3.org/2000/svg">
<defs>
<linearGradient gradientUnits="userSpaceOnUse" id="SVGID_4_" x1="81.63537" x2="461.32915">
<stop offset="0" stop-color="#dcdcdc"/>
<stop offset="1" stop-color="#fff"/>
</linearGradient>
<linearGradient gradientUnits="userSpaceOnUse" id="SVGID_3_" x1="411.38959" x2="696.88867">
<stop offset="0" stop-color="#fff"/>
<stop offset="1" stop-color="#dcdcdc"/>
</linearGradient>
<linearGradient gradientUnits="userSpaceOnUse" id="SVGID_2_" x1="-104.7695" x2="120.5615">
<stop offset="0" stop-color="#fdfdfd"/>
<stop offset="1" stop-color="#d4d4d4"/>
</linearGradient>
</defs>
<path d="m221.73248,379.86606v-36.81811c0-12.80479-55.43932-108.56688-64.89958-112.81466s-60.34678-5.6559-60.34678-5.6559v9.3934c0,0 50.53256-1.59706 57.03628,3.8641 7.81105,6.55871 53.18253,89.05914 59.493,103.42451 2.45134,5.58087.99751,40.24564.99751,40.24564l7.71957-1.63898z" fill="#9c9ea1" stroke="#231f20" stroke-width="2.70964"/>
<path d="m-101.142,435.927-3.628,35.761 225.332-47.917v-8.873z" fill="url(#SVGID_2_)" stroke="#231f20" stroke-width="5" transform="matrix(.67811,0,0,.67672,139.53375,95.3929)"/>
<path d="m80.28818,407.56875c-1.64506,6.3652-18.44045,8.49891-18.44045,8.49891l18.8209-185.15019c0,0 .92832-4.41824 4.15744-5.01714l9.02223-1.67218-11.89261,175.84665c.00061-.00064-.38762,2.54108-1.66749,7.49395z" fill="#fff" stroke="#231f20" stroke-width="3.38706"/>
<path d="m223.82302,382.30633c5.51643-1.17009 363.59748,4.96572 363.59748,4.96572l23.40218-10.37749c0,0-383.77318-.42604-388.82371-.73281 0-.00074-.92702,6.7292 1.82405,6.14458z" fill="#cccbcb" stroke="#231f20" stroke-width="3.38706"/>
<path d="m459.76491,186.67516c0,0 47.27557,6.19193 60.25522,11.9657 11.81395,5.25469 73.03821,115.45251 81.03372,133.65406 3.10577,7.07039 1.26334,50.99122 1.26334,50.99122l9.78104-2.07545v-46.64946c0-16.22357-66.8078-132.08749-83.54482-144.3895-17.64639-12.97061-67.22481-17.32662-67.22481-17.32662" fill="#e8e6e4" stroke="#231f20" stroke-width="3.38706"/>
<path d="m411.39,483.069 285.499-60.71v-11.241l-280.904,26.645-4.595,45.306" fill="url(#SVGID_3_)" stroke="#231f20" stroke-width="6" transform="matrix(.67811,0,0,.67672,139.53375,95.3929)"/>
<path d="m128.72944,231.63141 19.80816-1.73645 12.50836,2.77047c0,0-13.38446-3.55475-9.08122,3.36875 1.76309,2.83541-23.2353-4.40277-23.2353-4.40277z" fill="#010101"/>
<g transform="matrix(.67811,0,0,.67672,139.53375,95.3929)">
<path d="m480.35999,421.427 19.71902-260.23199" fill="none" stroke="#9c9ea1"/>
<path d="m500.07901,421.427 18.40097-258.12601" fill="none" stroke="#9c9ea1"/>
<path d="m538.47803,169.505-19.99805,245.65601" fill="none" stroke="#9c9ea1"/>
<path d="m542.76202,415.508 12.06098-246.003" fill="none" stroke="#9c9ea1"/>
<path d="m566.05499,413.298 10.20703-227.356" fill="none" stroke="#9c9ea1"/>
<path d="m585.93402,411.41199 9.19598-195.05899" fill="none" stroke="#9c9ea1"/>
<path d="m606.25897,409.48401 6.50501-162.68001" fill="none" stroke="#9c9ea1"/>
<path d="m628.71301,407.354 5.818-121.518" fill="none" stroke="#9c9ea1"/>
<path d="m646.60901,405.65701 5.95196-86.33801" fill="none" stroke="#9c9ea1"/>
<path d="m480.35999,174.17 95.90203,11.772" fill="none" stroke="#9c9ea1"/>
<path d="m475.36301,205.241 119.76699,11.112" fill="none" stroke="#9c9ea1"/>
<path d="m480.35999,246.804 136.02099,6.388" fill="none" stroke="#9c9ea1"/>
<path d="m469.92401,285.836h164.607" fill="none" stroke="#9c9ea1"/>
<path d="m469.92401,334.34201 187.25098-6.198" fill="none" stroke="#9c9ea1"/>
<path d="m464.30099,369.15601 204.55802-6.668" fill="none" stroke="#9c9ea1"/>
<path d="m468.43799,399.996 200.74304-10.10901" fill="none" stroke="#9c9ea1"/>
</g>
<path d="m69.42494,382.30633" fill="none" stroke="#231f20" stroke-width="1.35482"/>
<path d="m418.50008,422.29346c0,0 21.28034-2.70147 23.36483-10.76794 1.62069-6.27387 2.11367-9.49362 2.11367-9.49362l15.06753-222.80064-16.3986-2.03014-24.14743,245.09234" fill="#fff" stroke="#231f20" stroke-width="5.41929"/>
<path d="m461.32934,172.84439c0,0-368.61758,52.88537-373.61315,52.80218-10.22655-.17006-5.64185,11.68554-.12749,10.90528 5.51505-.7803 372.17621-49.87669 372.17621-49.87669l1.56438-13.83077" fill="url(#SVGID_4_)" stroke="#231f20" stroke-width="3.38706"/>
<path d="m188.18509,236.58834c55.7771,86.10671 48.99605,67.15867 55.7771,86.10671s2.71242,43.38152 2.71242,43.38152" fill="none" stroke="#9c9ea1" stroke-width=".67741"/>
<path d="m208.34595,235.00351c55.77697,86.10602 48.99592,67.15798 55.77697,86.10602s2.71242,43.38088 2.71242,43.38088" fill="none" stroke="#9c9ea1" stroke-width=".67741"/>
<path d="m238.19623,235.00351c55.77697,86.10669 48.99589,67.15862 55.77697,86.10669s2.71244,43.38087 2.71244,43.38087" fill="none" stroke="#9c9ea1" stroke-width=".67741"/>
<path d="m268.72459,224.61459c55.77697,94.04861 48.99589,73.35264 55.77697,94.04861s2.71239,47.38226 2.71239,47.38226" fill="none" stroke="#9c9ea1" stroke-width=".67741"/>
<path d="m305.64139,220.55431c55.77697,98.30039 48.99592,76.66915 55.77697,98.30039s2.71245,49.52484 2.71245,49.52484" fill="none" stroke="#9c9ea1" stroke-width=".67741"/>
<path d="m353.24447,214.91044c55.77771,98.30113 48.99666,76.66918 55.77771,98.30113s2.71244,49.52474 2.71244,49.52474" fill="none" stroke="#9c9ea1" stroke-width=".67741"/>
<path d="m397.21433,210.09963c17.6308,35.44914 21.28575,49.92001 21.28575,49.92001" fill="none" stroke="#9c9ea1" stroke-width=".67741"/>
<path d="m201.36016,256.7518 220.26605-26.0901" fill="none" stroke="#9c9ea1" stroke-width=".67741"/>
<path d="m208.15947,281.47626 210.34061-21.45662" fill="none" stroke="#9c9ea1" stroke-width=".67741"/>
<path d="m221.84911,308.71008 198.42086-21.20426" fill="none" stroke="#9c9ea1" stroke-width=".67741"/>
<path d="m238.19549,329.93998 173.43132-5.19245" fill="none" stroke="#9c9ea1" stroke-width=".67741"/>
<path d="m238.19623,350.41133 180.71753,2.05924" fill="none" stroke="#9c9ea1" stroke-width=".67741"/>
<path d="m438.61932,422.79211" fill="none" stroke="#231f20" stroke-width="1.35482"/>
</svg>
