<?xml version="1.0" encoding="UTF-8" standalone="no"?>
<svg height="477.66794" viewBox="0 0 477.66794 360.7728" width="477.66794" xmlns="http://www.w3.org/2000/svg">
<defs>
<clipPath id="clipPath3152">
<path d="m2.0768.11726h477.66794v360.7728h-477.66794z"/>
</clipPath>
</defs>
<title>Arco de futbol</title>
<g clip-path="url(#clipPath3152)" transform="translate(-2.0768,-.11726)">
<path d="m.98318-.73225h480.32089v363.79507h-480.32089z" fill="#4c6a3c" stroke="#fff" stroke-width="1.848"/>
<g transform="matrix(1,0,0,.90668,161.79168,-17.92205)">
<path d="m87.79894,159.72132v25.49001 4.85524c0,.27939-.06151,1.4954 0,1.61842 .0853.17059.31931.23401.4046.4046 .06032.12063 0,.26974 0,.4046v.80921 2.02302 .80921c0,.13486-.04265.27665 0,.4046 .09537.2861.30924.52311.4046.80921 .07609.22827 0,.94794 0,1.21381v2.02301c0,.26974-.0853.55332 0,.80921 .06032.18094.31931.23401.4046.4046 .04534.0907 0,1.52227 0,1.61842v2.42762 .8092c0,.13487-.06032.28398 0,.40461 .0853.17059.31931.234.4046.4046 .06157.12314 0,1.03159 0,1.21381v2.83222 6.87826 10.92429c0,.14859.01628,1.60214 0,1.61842-.09537.0954-.30924-.0954-.4046,0s.06031.28397 0,.4046c-.0853.1706-.26974.26974-.4046.4046l-.4046.40461" fill="none" stroke="#8e8e8e" stroke-opacity=".70588" stroke-width=".4"/>
<path d="m96.70021,162.55354v29.13145 6.06905 2.42762c0,.26974-.04434.54314 0,.80921 .09142.5485.29555,1.07313.4046,1.61841 .07935.39675 0,.80921 0,1.21381v2.42762 .80921c0,.13486-.03271.27376 0,.4046 .10344.41376.30116.80006.4046,1.21381 .03271.13084 0,.26974 0,.4046v2.02302 6.06905 15.77953" fill="none" stroke="#8e8e8e" stroke-opacity=".70588" stroke-width=".4"/>
<path d="m106.00609,163.76735v41.67415 7.68747 2.42762c0,.4046-.12795.82997 0,1.21381 .0603.18094.34429.22366.4046.4046 .0853.2559 0,.53947 0,.80921v2.02302 6.47365 4.45064c0,.33906-.086,1.85105 0,2.02301 .0603.12063.30924-.0954.40461,0s0,.26974 0,.40461v2.02301" fill="none" stroke="#8e8e8e" stroke-opacity=".70588" stroke-width=".4"/>
<path d="m116.93038,164.17196v29.53605 6.47365 2.42762c0,.26974.0529.54471 0,.80921-.0836.4182-.32096.7956-.4046,1.21381-.0529.26449 0,.53947 0,.8092v2.42762 7.68747 20.63477" fill="none" stroke="#8e8e8e" stroke-opacity=".70588" stroke-width=".4"/>
<path d="m125.83166,165.38577v72.82861" fill="none" stroke="#8e8e8e" stroke-opacity=".70588" stroke-width=".4"/>
<path d="m133.92372,181.97451h-19.42096-4.04603c-.34327,0-2.15918.0671-2.42762,0-1.95381-.48846.02-.19228-1.21381-.80921-.12063-.0603-.26974,0-.40461,0-.26973,0-.54752.0654-.8092,0-.29257-.0731-.51664-.33146-.80921-.4046-.59941-.14986-1.46107.22478-2.02302,0-.35418-.14168-.49181-.59761-.8092-.80921-.0333-.0222-1.51803,0-1.61842,0-.94886,0 .19073.0954-.8092-.4046-.25815-.12908-1.77415.12443-2.02302,0-.34119-.1706-.46802-.63861-.80921-.80921-.24126-.12063-.54753.0654-.80921,0-1.10681-.2767-.65109-.56893-1.61841-1.21381-.22443-.14962-.55331.0853-.80921,0-.2861-.0954-.52311-.30924-.80921-.4046-.12795-.0427-.29239.0748-.4046,0-.3174-.2116-.49181-.59761-.80921-.80921-.22443-.14962-.61848.19073-.80921,0-.09537-.0954.12063-.34429 0-.4046-.32368-.16185-.89013.16184-1.21381,0-.1706-.0853-.26974-.26974-.4046-.40461s-.53947-.26973-.4046-.4046 .59534.4046.4046.4046c-.92984-.46492-.50763-.4046-1.21381-.4046" fill="none" stroke="#8e8e8e" stroke-opacity=".70588" stroke-width=".4"/>
<path d="m132.30531,192.49419h-44.50637" fill="none" stroke="#8e8e8e" stroke-opacity=".70588" stroke-width=".4"/>
<path d="m133.92372,205.84611h-12.1381-2.02302c-.4046,0-.81327.0572-1.21381,0-.55048-.0786-1.0699-.31319-1.61841-.40461-.11194-.0186-1.56981.0194-1.61841,0-.4515-.18059-.76232-.62861-1.21381-.8092-.3866-.15464-1.93581.12295-2.42762,0-.29257-.0731-.51174-.35503-.80921-.40461-.53213-.0887-1.10663.1706-1.61841,0-.36189-.12063-.46802-.63861-.80921-.8092-.24126-.12063-.53947,0-.80921,0h-1.21381c-3.15596,0 .76768.12794-2.42762-.40461-.3991-.0665-.82997.12795-1.21381,0-.46132-.15377-.76232-.62861-1.21381-.8092-.50088-.20036-1.09505.13084-1.61841,0-.29257-.0731-.51664-.33146-.80921-.40461-.52336-.13084-1.10663.1706-1.61841,0-.84967-.28322-1.57795-.93058-2.42762-1.21381-.12795-.0427-.29239.0748-.4046,0-.3174-.2116-.49181-.59761-.80921-.8092-.22443-.14963-.56795.12063-.80921,0-.1706-.0853-.26974-.26974-.4046-.40461-.26974,0-.55331.0853-.80921,0-1.2629-.42096.13487-.26973-.4046-.8092-.09537-.0954-.28397.0603-.4046,0-.1706-.0853-.23401-.31931-.4046-.40461-.12063-.0603-.30924.0954-.4046,0s.06032-.28397 0-.4046c-.0853-.1706-.26974-.26974-.4046-.4046" fill="none" stroke="#8e8e8e" stroke-opacity=".70588" stroke-width=".4"/>
<path d="m132.70991,225.26707c-2.96249-.84001-6.01839-1.31882-8.90127-2.42762-.95866-.36872-1.85781-.88901-2.83223-1.21381-.6524-.21747-1.34867-.26974-2.02301-.4046s-1.34642-.28159-2.02302-.40461c-.80714-.14675-1.64935-.14518-2.42762-.4046-.46132-.15377-.7585-.63847-1.21381-.80921-.68944-.25854-3.89518-.65772-4.45064-.8092-1.3899-.10709-2.36424-1.25351-3.64143-1.61842-.38903-.11115-.8092,0-1.21381,0h-1.21381c-.53947,0-1.08436.0763-1.61841,0-.82322.14053-1.31084-.66677-2.02302-.8092-2.30098,0-.26637.18094-2.02302-.40461-.60691-.2023-.4046.40461-1.21381,0-.34119-.17059-.53947-.53947-.80921-.80921-.13487-.13486-.22366-.34428-.4046-.4046-.37416-.12472-2.16105.13328-2.42762,0-.43494-.21747-.77887-.59174-1.21381-.80921-.24126-.12062-.56795.12063-.80921,0-.1706-.0853-.23401-.3193-.4046-.4046-.32368-.16184-.89013.16184-1.21381,0-.12063-.0603.06032-.28397 0-.4046-.24998-.49997-.39064-.40461-.80921-.40461" fill="none" stroke="#8e8e8e" stroke-opacity=".70588" stroke-width=".4"/>
</g>
<g transform="translate(.64911,-.43274)">
<path d="m87.81986,173.65055c.02383-.58906 2.04867-.1729 2.44794-.30599 .55383.18443.56909-.49569.91798-.61199 .19353-.0645.41408.0495.61199,0 .22126-.0553.40235-.21615.61199-.30599 .50486-.21637 1.00888-.43829 1.52996-.61198 .09676-.0323.204,0 .30599,0 .40799-.102.83743-.14033 1.22397-.306 .33802-.14486.57364-.48285.91798-.61198 .48697-.18262 1.0254-.17985 1.52996-.30599 .31292-.0782.59867-.26038.91798-.306 .40389-.0577.82153.0671 1.22397,0 .22497-.0375.3862-.27373.61198-.30599 .50486-.0721 1.0352.12369 1.52996,0 .35678-.0892.56437-.51095.91798-.61198 .39229-.11209.82008.0577 1.22397,0 .3193-.0456.59982-.25297.91798-.306 .30183-.0503.61198,0 .91798,0h1.22397c.20399,0 .42952.0912.61198,0 .25804-.12901.34413-.50484.61199-.61198 .2841-.11364.61615.0503.91797,0 .31816-.053.59868-.26038.91798-.30599 .40389-.0577.81598,0 1.22397,0 .204,0 .41584.056.61199,0 4.84615-1.93846-.18057-.14749 2.14194-.61199 .31629-.0633.59793-.26598.91798-.30599 .50605-.0633 1.02988.10002 1.52997,0 .5386-.10772.99708-.47877 1.52996-.61199 .29685-.0742.61435.038.91798,0 .51607-.0645 1.0151-.23244 1.52996-.30599 .20194-.0288.41846.0645.61198,0 .43274-.14425.78538-.48667 1.22397-.61198 .29422-.0841.61199,0 .91798,0h.91798c.30599,0 .61615.0503.91798,0 .31815-.053.60169-.24274.91797-.306 .20004-.04.41584.056.61199,0 .52814-.15089.99709-.47876 1.52996-.61198 .29686-.0742.61615.0503.91798,0 .31815-.053.59867-.26038.91798-.30599 .40389-.0577.82816.099 1.22397,0 .44252-.11064.78537-.48668 1.22397-.61199 .29422-.0841.61198,0 .91797,0 .40799,0 .82008.0577 1.22397,0 .31931-.0456.59983-.25297.91798-.30599 .11603-.0193 1.78251.02 1.83596,0 .55687-.20883.97308-.70915 1.52996-.91798 .28651-.10744.61198,0 .91798,0h2.14194c.204,0 .42259.0758.61199,0 1.51043-.60417.28485-.65946 1.83596-.91798 .60365-.10061 1.23229.10061 1.83595,0 .63631-.10605 1.19964-.50593 1.83596-.61198 .30182-.0503.61792.06.91797,0 .22365-.0447.38834-.26127.61199-.30599 .44624-.0892 1.78495.11899 2.14195,0 .27368-.0912.35395-.48297.61198-.61199 .18246-.0912.40799,0 .61199,0 .30599,0 .61792.06.91797,0 .22365-.0447.39072-.25068.61199-.30599 .1979-.0495.40799,0 .61198,0h1.22397c.204,0 .42258.0758.61199,0 .34145-.13658.57652-.47541.91798-.61199 .1894-.0758.41408.0495.61198,0 .22126-.0553.39072-.25067.61199-.30599 .37194-.093 1.54358.11695 1.83595,0 .34146-.13658.56437-.51095.91798-.61198 3.04967,0 .34099.28849 1.52996-.306 .0912-.0456.204,0 .30599,0h1.52997c.10199,0 .22112.0566.30599,0 .24004-.16002.35395-.48296.61198-.61198 .18246-.0912.41196.04.61199,0 .31628-.0633.6017-.24274.91798-.306 .20003-.04.40799,0 .61198,0h1.52996c.204,0 .42953.0912.61199,0 .25804-.12901.37194-.45195.61198-.61198 .0849-.0566.204,0 .306,0 .20399,0 .41076.0335.61198,0 .41483-.0691.81159-.22352 1.22397-.30599 .35761-.0715 1.62917.10339 1.83596,0 .25803-.12902.37194-.45196.61198-.61199 .0849-.0566.204,0 .306,0 .1969,0 1.93486.0518 2.14194,0 .22127-.0553.39072-.25067.61199-.30599 .39581-.099.83691.12902 1.22397,0 .43274-.14425.79123-.46774 1.22397-.61199 .19352-.0645.40799,0 .61198,0 .40799,0 .82153.0671 1.22397,0 .22497-.0375.38834-.26126.61199-.30599 2.68491-.53698-1.01823.81511 1.83595-.61198 .1153-.0576 1.71132.0249 1.83596,0 .22364-.0447.39561-.23387.61198-.306 .32392-.10797 1.27948.12525 1.52997,0 .25803-.12901.37194-.45195.61198-.61198 .11597-.0773 1.31317.0542 1.52996,0 .22127-.0553.38834-.26126.61199-.30599 .50008-.10002 1.02988.10001 1.52996,0 .82825.52005.79123-.46774 1.22397-.61199 .38706-.12902.82816.099 1.22397,0 .22127-.0553.39072-.25067.61199-.30599 .2407-.0602 1.51774,0 1.83595,0 .204,0 .44225.11316.61199,0 .18977-.12651.0942-.52728.30599-.61199 .37881-.15152.82008.0577 1.22397,0 .3193-.0456.60506-.22776.91798-.30599 .099-.0247.20399,0 .30599,0h.61199c.30599,0 .62112.0742.91797,0 .27988-.07.35395-.48297.61199-.61198 .0912-.0456.20704.0247.30599,0 .31291-.0782.6017-.24274.91798-.306 .20003-.04.41846.0645.61198,0 .43274-.14424.78538-.48667 1.22397-.61198 .29422-.0841.61793.06.91798,0 .22364-.0447.39072-.25068.61199-.30599 .1979-.0495.40799,0 .61198,0h.91798 .61198c.204,0 .42953.0912.61199,0 .25803-.12902.3646-.46356.61198-.61199 .27658-.16595.61597-.19274.91798-.30599 .5143-.19286 1.00182-.46109 1.52996-.61199 .36295-.10369 1.40316.0721 1.83596,0 .41482-.0691.81598-.20399 1.22397-.30599s.825-.173 1.22397-.30599c.21637-.0721.39072-.25068.61198-.30599 .49476-.12369 1.02692.0838 1.52997,0 .31815-.053.60506-.22777.91797-.306 .28712-.0718 1.41175.0788 1.52997,0 .24004-.16002.35395-.48296.61198-.61198 .36492-.18246.82816.099 1.22397,0 .22127-.0553.39072-.25068.61199-.30599 .1979-.0495.42258.0758.61198,0 .34146-.13659.58905-.44752.91798-.61199 .28849-.14424.60506-.22776.91798-.30599 .6754-.16885.061.5662 1.22397-.30599 .18246-.13685.11622-.48548.30599-.61199 .16973-.11315.40799,0 .61198,0 .12509,0 2.00755.0538 2.14195,0 .34146-.13658.58905-.44752.91798-.61198 .0912-.0456.204,0 .30599,0 .306-.102.6414-.14005.91798-.306 .24738-.14842.35395-.48296.61199-.61198 .18245-.0912.41408.0495.61198,0 .22126-.0553.40022-.22129.61199-.30599 .29947-.11979.62948-.16175.91797-.306 .12902-.0645.17698-.24148.306-.30599 .0912-.0456.20399,0 .30599,0h.30599c.25968,0 1.66727.0562 1.83596,0 .13684-.0456.20399-.20399.30599-.30599 .31105-.31105.42397-.48849.91798-.61199 .1979-.0495.41408.0495.61198,0 1.47762-.3694-.0152-.14541.91798-.61198 .0912-.0456.20399,0 .30599,0 .204,0 .41408.0495.61199,0 .22126-.0553.39561-.23387.61198-.30599 .21047-.0702.73744.0903.91798,0 1.27347-.63674-.32712.0211.30599-.61199 .0721-.0721.21476.0456.30599,0 .12902-.0645.17698-.24148.306-.30599 .0912-.0456.20399,0 .30599,0h.30599 1.83596" fill="none" stroke="#8e8e8e" stroke-width=".4"/>
<path d="m88.43184,191.70411c1.74788-.17628 3.15672-1.33672 4.89588-1.52996 .50687-.0563 1.01998,0 1.52996,0 .30599,0 .62489.0879.91798,0 .74403-.22321 1.40502-.67234 2.14195-.91798 2.42826-.80942.65898.14516 3.36592-.30599 2.27494-.37916 1.48183-.79994 3.67191-1.52996 .58858-.1962 1.23405-.15552 1.83595-.306 .62583-.15645 1.20127-.49659 1.83596-.61198 .50176-.0912 1.02309.0563 1.52996,0 .41797-.0464.80515-.26792 1.22397-.306 .71105-.0646 1.44183.14003 2.14195,0 .36061-.0721.55898-.5322.91797-.61198 .59742-.13276 1.22701.0609 1.83596,0 .41846-.0419.80667-.25383 1.22397-.30599 .40484-.0506.82816.099 1.22397,0 .44253-.11063.78537-.48667 1.22397-.61199 1.78496-.50999.17.33999 1.52996,0 .22127-.0553.38834-.26126.61199-.30599 .30005-.06.62769.0968.91798,0 .34888-.1163.56909-.49569.91797-.61199 .29029-.0968.61199,0 .91798,0 .50999,0 1.0231.0563 1.52996,0 .41798-.0464.80765-.24651 1.22397-.30599 .30292-.0433.61928.0664.91798,0 .62973-.13994 1.20339-.48547 1.83596-.61198 2.8461-.56922-.58094.80563 2.75393-.306 .43274-.14424.79687-.45182 1.22397-.61198 .39377-.14766.825-.173 1.22397-.30599 .11057-.0369 2.01823-.84636 2.44794-.91798 .30183-.0503.61198,0 .91798,0 .50998-.204.99377-.49283 1.52996-.61199 .39827-.0885.83319.11724 1.22397,0 .65536-.1966 1.20067-.66386 1.83595-.91797 .63778-.25511 2.16052-.44244 2.75394-.61199 .2193-.0626.3862-.27374.61198-.30599h1.52997c.20399-.102.38701-.2685.61198-.30599 .40244-.0671.81598,0 1.22397,0 .30599,0 .63387.11364.91798,0 .26786-.10715.3383-.52076.61198-.61199 .38706-.12902.82008.0577 1.22397,0 .31931-.0456.61597-.19274.91798-.30599 .34652-.12995 1.87968-.7917 2.44794-.91798 .60565-.13459 1.23405-.15552 1.83596-.30599 .22126-.0553.38701-.2685.61198-.30599 .40244-.0671.83168.11208 1.22397,0 .72092-.20598.82895-.77778 1.52996-.91798 .30005-.06.62769.0968.91798,0 .80211.26823.75046-.72857 1.22397-.91798 2.02826-.8113.50929-.0849 1.83596-.30599 3.69015-.61503-.97057.11953 2.14194-.91798 .58859-.19619 1.24737-.1098 1.83596-.30599 .34888-.1163.58905-.44752.91798-.61199 1.71038-.85519.11908.12323 1.83595-.30599 .53288-.13322 1.0251-.39561 1.52997-.61198l1.22397-.61199c.30005-.06.61792.06.91797,0 .22365-.0447.40236-.21615.61199-.30599 .50486-.21637 1.01566-.41912 1.52996-.61199l.91798-.30599c.20399,0 .41584.056.61198,0 .52814-.1509 1.00888-.43829 1.52997-.61198 .39896-.13299.8302-.15833 1.22397-.306 .4271-.16016.79686-.45182 1.22397-.61198 .39377-.14767.8196-.19046 1.22397-.30599 .31013-.0886.60506-.22777.91797-.306 .50456-.12614 1.03657-.14152 1.52997-.30599 .43273-.14425.79686-.45182 1.22397-.61198 .39377-.14767.825-.17301 1.22397-.306 .52108-.17369.99709-.47876 1.52996-.61198 .29686-.0742.61793.06.91798,0 .72813-.14563 1.43071-.39862 2.14194-.61199 .30895-.0927.59983-.25296.91798-.30599 .30183-.0503.62376.0841.91798,0 .4386-.12531.79687-.45182 1.22397-.61198 .39377-.14767.83743-.14034 1.22397-.306 .33802-.14486.56437-.51095.91798-.61198 4.06517-1.16148-.5163.67207 1.83595,0 .52814-.1509 1.00183-.46109 1.52997-.61199 1.18763-.33932.0183.60103 1.52996-.30599 .24738-.14843.35395-.48297.61198-.61198 1.30002-.65001.96409-.10969 2.14195-.306 .31816-.053.61199-.20399.91798-.30599s.62151-.17894.91798-.30599c.41926-.17969.79123-.46774 1.22397-.61199 .38705-.12902.83691.12902 1.22397,0 .64258-.21419 1.19337-.70378 1.83595-.91797 .0968-.0323.204,0 .30599,0 .306-.102.62949-.16175.91798-.306 .32893-.16446.56909-.49569.91798-.61198 .29029-.0968.61198,0 .91798,0 .50998,0 1.03212.11063 1.52996,0 .44528-.099.78144-.50136 1.22397-.61199 .39581-.099.82008.0577 1.22397,0 .3193-.0456.59982-.25296.91798-.30599 .12698-.0212 1.78082.0221 1.83595,0 .26786-.10714.35395-.48297.61199-.61199 .18246-.0912.40799,0 .61198,0 .40799-.10199.84782-.11791 1.22397-.30599 .25804-.12902.37195-.45196.61199-.61198 .0849-.0566.20399,0 .30599,0 .11079,0 1.62156.0536 1.83595,0 .22127-.0553.39269-.24334.61199-.306 4.824-.9648-.28167.19589 2.14195-.61198 .26745-.0891 1.65165.0922 1.83595,0 .12902-.0645.16915-.26038.306-.30599 .19352-.0645.40799,0 .61198,0h.61199 2.14194 .306c.10199,0 .21476.0456.30599,0 .32893-.16447.57652-.47541.91798-.61199 .31251-.125.89786.1087 1.22397,0 .21637-.0721.39072-.25067.61198-.30599 1.40041-.3501-.31816.61807 1.52996-.30599 .12902-.0645.17698-.24149.306-.306 .18953-.0948 1.13343.0905 1.22397,0 .0721-.0721-.0912-.26037 0-.30599 .61198-.30599.45898.153.91797,0l.61199-.30599c0-.102-.0721-.23387 0-.30599 .0475-.0475.79891.0397.91798,0 .21637-.0721.39561-.23387.61198-.306 .0968-.0323.20923.0323.30599,0 .55982-.1866.83009-.52408 1.22397-.91797" fill="none" stroke="#8e8e8e" stroke-width=".4"/>
<path d="m89.34982,200.88389c.40799-.102.80915-.23686 1.22397-.306 .35383-.059 1.16245,0 1.52996,0h2.75393c.40799,0 .818.0406 1.22397,0 2.50024-.25002 1.32099-.34864 3.97791-.91797 .70522-.15112 1.42231-.25802 2.14194-.306 .81418-.0543 1.64781.16003 2.44794,0 .76171-.15234 1.39139-.71782 2.14195-.91797 3.5393-.94382 1.34611.22647 4.89588-.306 1.24768-.18715 2.42744-.71056 3.67191-.91797 .60366-.10061 1.23964.13761 1.83596,0 .75689-.17467 1.38835-.72958 2.14195-.91798 .49476-.12369 1.03129.10686 1.52996,0 .94615-.20275 1.80778-.71523 2.75393-.91798 .49867-.10686 1.02207.0462 1.52996,0 .61788-.0562 1.21808-.24982 1.83596-.30599 .50789-.0462 1.0282.0912 1.52996,0 .63468-.1154 1.19837-.5139 1.83596-.61199 .70568-.10856 1.43422.0944 2.14194,0 4.14335-.55244.81168-.62862 4.2839-.91797 .60987-.0508 1.22608.0508 1.83595,0 2.18203-.18184 1.70184-.43025 3.97791-.91798 .70522-.15112 1.42255-.25461 2.14195-.30599 .71216-.0509 1.42796,0 2.14194,0h1.83596c.81598,0 1.64437.1418 2.44794,0 .95291-.16816 1.82353-.65215 2.75393-.91798 .50008-.14288 1.02142-.19702 1.52996-.30599 .9195-.19704 1.82787-.44857 2.75394-.61199 .80981-.14291 1.62721-.2547 2.44794-.30599 .81439-.0509 1.6478.16002 2.44794,0 .7617-.15234 1.42071-.62949 2.14194-.91798 .80914-.32365 1.61001-.67857 2.44794-.91798 .59656-.17044 1.23031-.1714 1.83596-.30599 .31486-.07.60311-.23602.91798-.30599 .60565-.13459 1.24296-.12354 1.83595-.30599 4.21728-1.80741.3108-.30731 3.67191-1.22398 .62236-.16973 1.19837-.51389 1.83596-.61198 .70568-.10857 1.45543.19615 2.14195,0 .79069-.22591 1.36752-.94739 2.14194-1.22397 .67922-.24258 1.43673-.15487 2.14195-.30599 1.13714-.24367 2.23066-.6657 3.36592-.91798 .5077-.11282 1.03656-.14153 1.52996-.30599 .43274-.14425.80471-.4323 1.22397-.61199 .73367-.31443 1.36557-.39016 2.14195-.61198 .31013-.0886.59982-.25297.91798-.306 .30183-.0503.62376.0841.91797,0 .4386-.12531.80471-.4323 1.22397-.61198 .29647-.12706.61199-.204.91798-.30599 .61199-.204 1.21013-.45553 1.83596-.61199 5.23235-.87206-1.26732.34563 3.36591-.91798 .79025-.21552 2.22406-.2637 3.05993-.61198s1.57599-.95568 2.44794-1.22397c5.57884-1.71657-3.25934,2.33258 3.36592-.61199 1.42385-.63282.43235-.73551 2.14195-1.22397 .29422-.0841.62375.0841.91797,0 .4386-.12531.79123-.46773 1.22397-.61198 .19353-.0645.40799,0 .61199,0 .81598-.30599 1.64351-.5828 2.44794-.91798 .84212-.35088 1.60941-.8646 2.44794-1.22397 .29646-.12706.62151-.17893.91798-.30599 .41926-.17969.78537-.48667 1.22397-.61199 .29422-.0841.63146.10744.91797,0 .55688-.20882.99801-.652 1.52997-.91797 .28849-.14425.6185-.18621.91797-.306 .21177-.0847.38702-.26849.61199-.30599h1.22397c.102-.102.16605-.27101.30599-.30599 .29686-.0742.62769.0968.91798,0 .34888-.1163.60263-.42278.91798-.61199 .40799-.24479 1.0921-.52441 1.52996-.61198 .93314-.18663.42065.35959 1.52996-.30599 .24738-.14843.35395-.48297.61199-.61199 1.8096-.9048-.65446,1.10283 1.22397-.30599 .23079-.1731.35395-.48297.61198-.61199 .27369-.13684.64429.13685.91798,0 .32893-.16446.62377-.39133.91798-.61198 .1154-.0866.17697-.24149.30599-.30599 .24479-.1224.67318.12239.91798,0 .25803-.12902.35395-.48297.61198-.61199 .37615-.18807.82501-.173 1.22397-.30599 .52109-.1737 1.0251-.39562 1.52997-.61199 .20963-.0898.39561-.23387.61198-.30599 .0968-.0323.20923.0323.30599,0l.61199-.30599c0-.102-.0721-.23387 0-.30599s.21476.0456.30599,0c.12902-.0645.17698-.24149.30599-.306 .16152-.0808.78473.0888.91798,0l.61199-.61198c.10199,0 .21476.0456.30599,0 .12902-.0645.17697-.24149.30599-.30599 .12132-.0607.85542.0625.91798,0 .63311-.63311-.96748.0247.30599-.61199 .16258-.0813.44941.0813.61199,0 .12901-.0645.20399-.20399.30599-.30599l.30599-.30599" fill="none" stroke="#8e8e8e" stroke-width=".4"/>
<path d="m89.9618,214.34756h1.52996c.102,0 .20923.0323.30599,0 .21637-.0721.40022-.22129.61199-.306 .29947-.11979.62151-.17893.91798-.30599 .41927-.17968.78144-.50135 1.22397-.61198 .39581-.099.83319.11723 1.22397,0 .65536-.19661 1.16692-.77462 1.83596-.91798 .79787-.17097 1.64781.16003 2.44794,0 .7617-.15234 1.38835-.72958 2.14194-.91798 .89605-.22401 1.84161-.16194 2.75394-.30599 1.02744-.16223 2.02611-.49712 3.05992-.61199 .81099-.0901 1.63755.0953 2.44794,0 2.75666-.32431 5.24048-1.63282 7.95581-2.14194 .80824-.15155 1.64158-.14472 2.44794-.306 2.28715-.45743 1.78661-.76145 3.9779-.91797 .81391-.0581 1.64145.12407 2.44794,0 .54289-.0835 1.00004-.46746 1.52996-.61199 1.05259-.72224 2.27296-.0327 3.36592-.30599 .7536-.1884 1.38835-.72958 2.14195-.91798 .89605-.22401 1.83265-.24019 2.75393-.30599 .50869-.0363 1.0352.12369 1.52996,0 .7536-.1884 1.39139-.71783 2.14195-.91798 6.22234-1.65929-1.31621.93643 4.89588-.30599 .76171-.15234 1.3824-.75522 2.14195-.91798 1.23757-.26519 2.72771.22731 3.9779,0 .54042-.0983.99709-.47877 1.52997-.61198 4.30202-1.07551-.0179.35583 4.28389-.306 .63759-.0981 1.20739-.46693 1.83596-.61198 1.17207-.68883 2.46351-.0863 3.67191-.30599 .63468-.1154 1.19735-.52076 1.83595-.61199 .80778-.1154 1.65007.17097 2.44794,0 .66903-.14336 1.18199-.71676 1.83596-.91798 3.77938-1.16288.61986.24893 3.67191-.30599 .63468-.1154 1.21359-.44225 1.83595-.61198 .50176-.13685 1.0282-.16915 1.52997-.306 1.85756-.5066 2.10438-.78055 3.9779-1.52996 .29947-.11979.61198-.20399.91798-.30599 .61198-.204 1.21359-.44225 1.83595-.61199 .50176-.13684 1.03657-.14152 1.52996-.30599 .43274-.14425.78706-.48091 1.22397-.61198 .59426-.17828 1.23739-.14275 1.83596-.306 .52992-.14452.98955-.51372 1.52996-.61198 .60212-.10948 1.2323.10061 1.83596,0 .63631-.10605 1.21359-.44225 1.83595-.61199 .50176-.13684 1.0282-.16915 1.52996-.30599 .62236-.16973 1.23194-.38548 1.83596-.61198 1.97777-.74167-1.70586.23636 2.14195-.91798 .49815-.14945 1.03355-.15087 1.52996-.30599 1.13951-.3561 2.218-.896 3.36592-1.22397 .29422-.0841.63147.10744.91798,0 .55687-.20883.97308-.70915 1.52996-.91798 .28651-.10744.62769.0968.91798,0 .6491-.21637 1.18684-.70161 1.83595-.91798 .29029-.0968.61199,0 .91798,0 .61198-.30599 1.20067-.66386 1.83595-.91798 .39047-.15618.81598-.20399 1.22397-.30599s.81961-.19046 1.22397-.30599c.31014-.0886.60507-.22777.91798-.306 2.52396-.63099.5551.0163 2.75393-.61198 .97237-.27782 1.41327-.52998 2.44794-.91798 .30201-.11325.59868-.26038.91798-.30599 .40389-.0577.83319.11723 1.22397,0 .65537-.19661 1.18685-.70161 1.83596-.91798 .29029-.0968.63146.10744.91797,0 .55688-.20883.97309-.70915 1.52997-.91798 .28651-.10744.62376.0841.91797,0 .4386-.12531.80471-.4323 1.22397-.61198 .29647-.12706.61199-.204.91798-.30599 .40799-.204.80471-.4323 1.22397-.61199 3.01801-1.29343-1.12143.53898 1.83596-.30599 .43859-.12531.81598-.40799 1.22397-.61199 .20399-.10199.38834-.26126.61198-.30599 .30005-.06.61199,0 .91798,0 .204,0 .42258.0758.61199,0 .34145-.13658.58904-.44752.91797-.61198 .0912-.0456.20539.0168.306,0 .51301-.0855 1.05192-.10112 1.52996-.306 .26516-.11364.35395-.48296.61198-.61198 .37615-.18807.81961-.19046 1.22397-.30599 .31014-.0886.6017-.24274.91798-.306 .20003-.04.41846.0645.61199,0 .13684-.0456.16914-.26037.30599-.30599 .19353-.0645.40799,0 .61198,0 .102,0 .21477.0456.306,0 .12901-.0645.18597-.22598.30599-.30599 1.54581-1.03054.007-.002.91798-.30599 .21637-.0721.38834-.26127.61198-.306 .30005-.06.64429.13685.91798,0 .38705-.19352.54691-.69533.91798-.91797 .17492-.10496.42258.0758.61198,0 .34146-.13659.58905-.44752.91798-.61199 .0912-.0456.20923.0323.30599,0 1.73366-.86683-.45615.11404 1.22397-.30599 .494-.1235.60693-.30094.91798-.61199 .102-.10199.17697-.24148.30599-.30599 .0912-.0456.204,0 .30599,0h.306" fill="none" stroke="#8e8e8e" stroke-width=".4"/>
<path d="m243.8483,127.83564v31.1572 6.70745 1.73095 .64911c0,.21637-.0525.4392 0,.64911 .0247.099.19163.11742.21637.21637 .0389.15549 0,1.05964 0,1.29821v2.81281 9.52025 3.24554c0,.15469-.0369,1.18746 0,1.29822 .0323.0968.17076.12514.21637.21637 .0323.0645 0,.14424 0,.21637v.21637 1.29821c0,.18132-.046.98989 0,1.08185 .0323.0645.16537-.051.21637,0 .007.007 0,.59663 0,.64911" fill="none" stroke="#8e8e8e" stroke-width=".4"/>
<path d="m233.67894,192.96283c-.0721-.28849-.50486-.79335-.21637-.86548s.42664,1.07575.21637.86548c-.71362-.71362-.64911-1.02716-.64911-1.73095 0-.14425.035-.2928 0-.43274-.0391-.15646-.17725-.27629-.21637-.43274-.0366-.14643 0-1.37535 0-1.51459v-2.16369-7.35656-3.89465c0-.38968.0534-1.46404 0-1.73096-.0894-.44728-.3221-.85568-.43273-1.29821-.035-.13994 0-.28849 0-.43274v-.86548-3.02917-6.27471-6.27471-1.94733c0-.22733.0429-.86713 0-1.08185-.0447-.22364-.17165-.42546-.21637-.6491-.0283-.14145.0742-.30905 0-.43274-.15744-.26239-.51227-.37542-.64911-.64911 0-1.16374.15299-.20325-.43274-1.08185-.0396-.0594.0156-.81878 0-.86548-.0323-.0968-.17076-.12514-.21637-.21636-.0323-.0645 0-.14425 0-.21637v-.21637-1.08185-3.24554" fill="none" stroke="#8e8e8e" stroke-width=".4"/>
<path d="m223.07684,195.77563c-.14424-.28849-.37504-.54813-.43274-.86547-.0903-.49672 0-1.00973 0-1.51459v-3.89465-10.6021-20.55509-6.49108-1.94733c0-.11314.0284-.80858 0-.86548-.0456-.0912-.18411-.1196-.21637-.21637-.0399-.11965 0-1.08032 0-1.29821" fill="none" stroke="#8e8e8e" stroke-width=".4"/>
<path d="m212.69111,198.8048c-.61638-.60199-.109-1.3031-.21637-1.94732-.0489-.29333-.17431-.5711-.21637-.86548-.0306-.21419 0-.43274 0-.64911v-2.59643-8.22204-2.38006c0-.43274.0774-.87246 0-1.29822-.0695-.38213-.35657-.70099-.43274-1.08184-.0707-.35362 0-.72123 0-1.08185v-.86548c0-.28849.0358-.57921 0-.86547-.0369-.29508-.17431-.5711-.21637-.86548-.0306-.2142 0-.43274 0-.64911v-.86548-3.02917c0-.21637.0594-.44106 0-.64911-.0886-.31013-.33074-.55948-.43273-.86547-.0456-.13685 0-.2885 0-.43274 0-.21637.0356-.43569 0-.64911-.0375-.22497-.17165-.42547-.21637-.64911-.0283-.14145 0-.28849 0-.43274v-.86548c0-.14424.0536-.29881 0-.43274-.0966-.24144-.3613-.39907-.43274-.6491-.0793-.2774.0408-.57989 0-.86548-.11657-.81598-.39976-.64186-.64911-1.51459-.0412-.14437 0-1.26156 0-1.51458 0-.14425.035-.2928 0-.43274-.0391-.15646-.17726-.27628-.21637-.43274-.07-.27988.12902-.60744 0-.86548-.0912-.18246-.36823-.23921-.43274-.43274-.14335-.43006.10725-1.08559 0-1.51458-.0391-.15646-.17725-.27628-.21637-.43274-.01-.0392.0135-1.06838 0-1.08185-.11404-.11403-.3187-.10233-.43274-.21637-.0421-.0421.0395-1.00284 0-1.08184-.0323-.0645-.16537.051-.21637,0-.009-.009 0-.78602 0-.86548v-4.54376" fill="none" stroke="#8e8e8e" stroke-width=".4"/>
<path d="m197.54525,151.63628v9.30388 25.74796 2.8128c0,.57699-.0716,1.15843 0,1.73096 .0566.45262.35775.84827.43274,1.29821 .0356.21343 0,.43274 0,.64911v1.29822c0,.0974-.0329.58326 0,.6491 .0456.0912.18412.11961.21637.21637 .0372.11147 0,1.28571 0,1.51459v2.8128 1.08185c0,.14424.14425.43274 0,.43274s0-.57699 0-.43274v1.29821c0,.0721.0721.21637 0,.21637s0-.14424 0-.21637" fill="none" stroke="#8e8e8e" stroke-width=".4"/>
<path d="m186.72678,154.23271c-.0721.36062-.16436.71779-.21637,1.08185-.0204.14279 0,.28849 0,.43274v.86547 3.02917 9.08752 26.39706 3.46191 1.29822c0,.0514.0242.81698 0,.86548-.0456.0912-.17075.12514-.21636.21637-.0323.0645 0,.14424 0,.21637v.21637 1.51458c0,.19338.0345,1.0129 0,1.08185-.0456.0912-.14425.14425-.21637.21637" fill="none" stroke="#8e8e8e" stroke-width=".4"/>
<path d="m172.4464,158.34373c.0721.28849.16749.57215.21637.86548 .0237.14228 0,.28849 0,.43273v.86548 3.46191c0,.50486-.0714,1.0148 0,1.51459 .0743.51979.32273,1.00117.43274,1.51458 .10686.49867.14425,1.00973.21637,1.51459 .14425,1.00972.33604,2.01379.43274,3.02917 .0479.50259 0,1.00972 0,1.51459 0,.36061-.0811.73046 0,1.08184 .13856.60044.51999,1.12842.64911,1.73096 .0907.42313 0,.86548 0,1.29822v1.08184c0,4.04714-.099-.55737.21637,2.59643 .0805.80483-.0889,1.79652 0,2.59644 .0406.36551.15591.71909.21637,1.08184 .0119.0712 0,.14425 0,.21637v.86548c0,.21637-.0239.43406 0,.64911 .0484.43602.16195.8629.21637,1.29822 .0179.14313 0,.28849 0,.43273v1.29822c0,.21637-.0424.43694 0,.64911 .0316.15814.18474.2746.21637.43274 .0424.21217 0,.43274 0,.64911v1.29821c0,.14425-.0237.29046 0,.43274 .25135,1.50813.21637.32426.21637,1.29822v1.94732c0,.36062-.0707.72824 0,1.08185 .0316.15814.17725.27628.21637.43274 .0359.14355 0,1.11465 0,1.29821v2.59644 6.05834" fill="none" stroke="#8e8e8e" stroke-width=".4"/>
<path d="m160.97883,160.50742v36.56643 6.27471 2.1637c0,.1875-.0418.74014 0,.86547 .051.153.16537.27975.21637.43274 .0228.0684 0,.14425 0,.21637v.43274 1.08185c0,.11314-.0284.80858 0,.86547 .0456.0912.17075.12514.21637.21637 .0322.0645 0,.14425 0,.21637v.21637 1.29822" fill="none" stroke="#8e8e8e" stroke-width=".4"/>
<path d="m150.16036,162.23838v14.49675 2.59643c0,.36061-.0218.72189 0,1.08185 .12247,2.02088.31385,4.03724.43274,6.05834 .0254.43199 0,.86548 0,1.29822v4.54375 3.67828 .86548c0,.21637-.0268.43441 0,.64911 .24465,1.95727.21637.4262.21637,1.51458v3.24554 1.08185c0,.14425-.0283.29129 0,.43274 .0447.22364.16105.42784.21636.64911 .0175.07 0,.14424 0,.21637v.43274 1.29821 3.89465 1.29822 .21637c0,.0721.0721.21637 0,.21637s0-.2885 0-.21637c0,.15468.0369,1.18746 0,1.29821-.0323.0968-.14424.14425-.21636.21637" fill="none" stroke="#8e8e8e" stroke-width=".4"/>
<path d="m138.47641,165.91666c.0721.36061.11534.72824.21637,1.08184 .0443.15507.16537.27975.21637.43274 .0228.0684 0,.14425 0,.21637v1.08185 2.16369c0,.2885-.0287.57842 0,.86548 .0436.43653.17994.86102.21637,1.29822 .0359.43124 0,.86547 0,1.29821 0,.2885-.0566.58259 0,.86548 .0895.44729.33378.85293.43274,1.29822 .0469.21121 0,.43274 0,.64911v2.38006c0,.21637-.0306.43491 0,.64911 .0421.29438.17431.57109.21637.86547 .0306.2142 0,.43274 0,.64911v1.08185c0,.28849-.0358.57921 0,.86548 .0369.29507.18353.56992.21637.86547 .0398.35841 0,.72124 0,1.08185v2.8128 .64911c0,.14425-.0283.2913 0,.43274 .0447.22364.16105.42784.21637.64911 .0175.07 0,.14424 0,.21637v1.29821 1.08185c0,.0565-.0363,1.18944 0,1.29822 .051.15299.16537.27974.21636.43274 .0228.0684 0,.14424 0,.21637v.43273 .86548 2.8128 1.29822c0,.0721-.0175.1464 0,.21637 .0553.22126.17164.42546.21637.64911 .0283.14144 0,.28849 0,.43274v.6491 1.94733c0,1.09646-.0645-.25804.21637.86548 .0412.16487 0,1.29072 0,1.51458 0,.14425-.0456.2959 0,.43274 .051.153.16537.27974.21637.43274 .0228.0684 0,.14425 0,.21637v.43274 1.94732 .21637c0,.0721-.0323.15186 0,.21637 .0456.0912.17076.12514.21637.21637 .0323.0645 0,.14425 0,.21637v.21637 1.08185 2.59643 1.08185c0,.14424.14425.43274 0,.43274s0-.57699 0-.43274v.6491c0,.0721.0721.21637 0,.21637s0-.14424 0-.21637" fill="none" stroke="#8e8e8e" stroke-width=".4"/>
</g>
<path d="m134.93087,164.66672c1.19822,76.14764-.0922.30602 1.14439,76.10202-49.09699-8.48182-.004.0364-49.03509-8.43481 158.48674-40.53735-.05017-.17825 158.43175-40.55944 51.75896,8.43567-.0233-.0858 51.75048,8.5512 .86095-72.34256-.0235-1.23977.89151-73.2093-163.1466,37.10733-.0547.29432-163.18304,37.55033z" fill="none" stroke="#fff" stroke-width="2"/>
<path d="m1.14439,277.60383 166.50892,32.61515 373.64373-108.71716-138.47133-25.74881z" fill="none" stroke="#fff" stroke-width="1.5"/>
<path d="m134.75207,164.5952c-48.35351-3.67984-48.57155-3.86237-48.57155-3.86237l157.79532-32.97518 53.81226-.80921z" fill="none" stroke="#fff" stroke-width=".5"/>
<path d="m87.79894,159.72132v25.49001 4.85524c0,.27939-.06151,1.4954 0,1.61842 .0853.17059.31931.23401.4046.4046 .06032.12063 0,.26974 0,.4046v.80921 2.02302 .80921c0,.13486-.04265.27665 0,.4046 .09537.2861.30924.52311.4046.80921 .07609.22827 0,.94794 0,1.21381v2.02301c0,.26974-.0853.55332 0,.80921 .06032.18094.31931.23401.4046.4046 .04534.0907 0,1.52227 0,1.61842v2.42762 .8092c0,.13487-.06032.28398 0,.40461 .0853.17059.31931.234.4046.4046 .06157.12314 0,1.03159 0,1.21381v2.83222 6.87826 10.92429c0,.14859.01628,1.60214 0,1.61842-.09537.0954-.30924-.0954-.4046,0s.06031.28397 0,.4046c-.0853.1706-.26974.26974-.4046.4046l-.4046.40461" fill="none" stroke="#8e8e8e" stroke-opacity=".70588" stroke-width=".4"/>
<path d="m96.70021,162.55354v29.13145 6.06905 2.42762c0,.26974-.04434.54314 0,.80921 .09142.5485.29555,1.07313.4046,1.61841 .07935.39675 0,.80921 0,1.21381v2.42762 .80921c0,.13486-.03271.27376 0,.4046 .10344.41376.30116.80006.4046,1.21381 .03271.13084 0,.26974 0,.4046v2.02302 6.06905 15.77953" fill="none" stroke="#8e8e8e" stroke-opacity=".70588" stroke-width=".4"/>
<path d="m106.00609,163.76735v41.67415 7.68747 2.42762c0,.4046-.12795.82997 0,1.21381 .0603.18094.34429.22366.4046.4046 .0853.2559 0,.53947 0,.80921v2.02302 6.47365 4.45064c0,.33906-.086,1.85105 0,2.02301 .0603.12063.30924-.0954.40461,0s0,.26974 0,.40461v2.02301" fill="none" stroke="#8e8e8e" stroke-opacity=".70588" stroke-width=".4"/>
<path d="m116.93038,164.17196v29.53605 6.47365 2.42762c0,.26974.0529.54471 0,.80921-.0836.4182-.32096.7956-.4046,1.21381-.0529.26449 0,.53947 0,.8092v2.42762 7.68747 20.63477" fill="none" stroke="#8e8e8e" stroke-opacity=".70588" stroke-width=".4"/>
<path d="m125.83166,165.38577v72.82861" fill="none" stroke="#8e8e8e" stroke-opacity=".70588" stroke-width=".4"/>
<path d="m133.92372,181.97451h-19.42096-4.04603c-.34327,0-2.15918.0671-2.42762,0-1.95381-.48846.02-.19228-1.21381-.80921-.12063-.0603-.26974,0-.40461,0-.26973,0-.54752.0654-.8092,0-.29257-.0731-.51664-.33146-.80921-.4046-.59941-.14986-1.46107.22478-2.02302,0-.35418-.14168-.49181-.59761-.8092-.80921-.0333-.0222-1.51803,0-1.61842,0-.94886,0 .19073.0954-.8092-.4046-.25815-.12908-1.77415.12443-2.02302,0-.34119-.1706-.46802-.63861-.80921-.80921-.24126-.12063-.54753.0654-.80921,0-1.10681-.2767-.65109-.56893-1.61841-1.21381-.22443-.14962-.55331.0853-.80921,0-.2861-.0954-.52311-.30924-.80921-.4046-.12795-.0427-.29239.0748-.4046,0-.3174-.2116-.49181-.59761-.80921-.80921-.22443-.14962-.61848.19073-.80921,0-.09537-.0954.12063-.34429 0-.4046-.32368-.16185-.89013.16184-1.21381,0-.1706-.0853-.26974-.26974-.4046-.40461s-.53947-.26973-.4046-.4046 .59534.4046.4046.4046c-.92984-.46492-.50763-.4046-1.21381-.4046" fill="none" stroke="#8e8e8e" stroke-opacity=".70588" stroke-width=".4"/>
<path d="m132.30531,192.49419h-44.50637" fill="none" stroke="#8e8e8e" stroke-opacity=".70588" stroke-width=".4"/>
<path d="m133.92372,205.84611h-12.1381-2.02302c-.4046,0-.81327.0572-1.21381,0-.55048-.0786-1.0699-.31319-1.61841-.40461-.11194-.0186-1.56981.0194-1.61841,0-.4515-.18059-.76232-.62861-1.21381-.8092-.3866-.15464-1.93581.12295-2.42762,0-.29257-.0731-.51174-.35503-.80921-.40461-.53213-.0887-1.10663.1706-1.61841,0-.36189-.12063-.46802-.63861-.80921-.8092-.24126-.12063-.53947,0-.80921,0h-1.21381c-3.15596,0 .76768.12794-2.42762-.40461-.3991-.0665-.82997.12795-1.21381,0-.46132-.15377-.76232-.62861-1.21381-.8092-.50088-.20036-1.09505.13084-1.61841,0-.29257-.0731-.51664-.33146-.80921-.40461-.52336-.13084-1.10663.1706-1.61841,0-.84967-.28322-1.57795-.93058-2.42762-1.21381-.12795-.0427-.29239.0748-.4046,0-.3174-.2116-.49181-.59761-.80921-.8092-.22443-.14963-.56795.12063-.80921,0-.1706-.0853-.26974-.26974-.4046-.40461-.26974,0-.55331.0853-.80921,0-1.2629-.42096.13487-.26973-.4046-.8092-.09537-.0954-.28397.0603-.4046,0-.1706-.0853-.23401-.31931-.4046-.40461-.12063-.0603-.30924.0954-.4046,0s.06032-.28397 0-.4046c-.0853-.1706-.26974-.26974-.4046-.4046" fill="none" stroke="#8e8e8e" stroke-opacity=".70588" stroke-width=".4"/>
<path d="m132.70991,225.26707c-2.96249-.84001-6.01839-1.31882-8.90127-2.42762-.95866-.36872-1.85781-.88901-2.83223-1.21381-.6524-.21747-1.34867-.26974-2.02301-.4046s-1.34642-.28159-2.02302-.40461c-.80714-.14675-1.64935-.14518-2.42762-.4046-.46132-.15377-.7585-.63847-1.21381-.80921-.68944-.25854-3.89518-.65772-4.45064-.8092-1.3899-.10709-2.36424-1.25351-3.64143-1.61842-.38903-.11115-.8092,0-1.21381,0h-1.21381c-.53947,0-1.08436.0763-1.61841,0-.82322.14053-1.31084-.66677-2.02302-.8092-2.30098,0-.26637.18094-2.02302-.40461-.60691-.2023-.4046.40461-1.21381,0-.34119-.17059-.53947-.53947-.80921-.80921-.13487-.13486-.22366-.34428-.4046-.4046-.37416-.12472-2.16105.13328-2.42762,0-.43494-.21747-.77887-.59174-1.21381-.80921-.24126-.12062-.56795.12063-.80921,0-.1706-.0853-.23401-.3193-.4046-.4046-.32368-.16184-.89013.16184-1.21381,0-.12063-.0603.06032-.28397 0-.4046-.24998-.49997-.39064-.40461-.80921-.40461" fill="none" stroke="#8e8e8e" stroke-opacity=".70588" stroke-width=".4"/>
<path d="m100.83269,158.00926c.0496.36006 2.18468-.18818 2.62479,0 .232.0992.41895.34479.65619.42086 .29293.094 1.26072,0 1.64049,0h3.93719 9.84297 3.93718c.18905,0 1.52092-.0767 1.64049,0 .13834.0887.18137.35814.32811.42088 .2075.0887.43746,0 .65619,0h1.9686 1.96859c.11177,0 1.13483-.0759 1.31239,0 .232.0992.4242.32166.6562.42087s1.92825,0 2.29669,0c.21874,0 .44869-.0887.6562,0 .14673.0627.18976.33213.3281.42086 .0998.0641.83653,0 .9843,0h2.62479 .32809c.10937,0 .25077-.0992.3281,0s-.0773.32167 0,.42087 .21874,0 .3281,0h.3281c.38755,0 1.77348-.0835 1.96859,0 1.2163.52007-.39994.42087.6562.42087 .13802,0 1.87099-.0626 1.96859,0 .81087.52006-.11325.42087.6562.42087h.3281c.10936,0 .32809-.1403.32809,0s-.21873,0-.32809,0" fill="none" stroke="#8e8e8e" stroke-width=".48576"/>
<path d="m133.09867,151.30888h2.95002c.21853,0 .44826-.0768.65557,0 .14658.0543.17787.32265.32778.3643 .31799.0883.65555,0 .98334,0h2.29446c.43704,0 .88258-.0952 1.31112,0 .15152.0337.1812.30998.32779.36429 .2073.0768.43704,0 .65556,0 .30738,0 1.98374-.0863 2.29446,0 .33519.0931.64455.28899.98335.36429 .21427.0476.43704,0 .65555,0h2.29447 .98335c.10926,0 .22413-.0385.32778,0 .23177.0858.41854.29844.65556.36429 .21199.0589.43704,0 .65556,0h1.96669c.21851,0 .44128-.0476.65555,0 .3388.0754.64815.27117.98335.3643 .27749.0771.9708,0 1.31112,0h2.62225 .65555c.10927,0 .22413-.0385.32779,0 .23178.0858.41854.29843.65556.36429 .26655.074 1.62355,0 1.96669,0 .21851,0 .44824-.0768.65555,0 .1466.0543.18959.28749.32778.36429 .2068.11489 1.43213-.11488 1.63891,0 .1382.0768.1812.30999.32778.36429 .0817.0302 1.60514-.0375 1.6389,0 .0772.0858-.0977.30999 0,.36431 .33657.18703.93429-.10477 1.31112,0 .42644.11845 1.232.42709 1.63891.72858 .12856.0952.18119.30999.32778.36429 .31096.11524.65556,0 .98334,0" fill="none" stroke="#8e8e8e" stroke-width=".45172"/>
<path d="m160.3864,145.54259c.46821.12523 1.52168-.12523 1.40462.37568s-1.83628-.60659-1.40462-.37568c1.47865.79096 1.48353.75135 2.45809.75135 .23411,0 .4752-.0608.70232,0 .92424.24721.48037.50416 1.40462.75136 .22711.0608.46821,0 .70231,0 .46821,0 .95039-.12154 1.40462,0 .50785.13583.89678.61553 1.40462.75135 .36417.0974 1.98013-.073 2.4581,0s.92857.2908 1.40462.37569c.23092.0411.46821,0 .7023,0 .70232,0 1.40812-.0748 2.10694,0 .82358.0882 1.63548.27788 2.4581.37567 .43894.0522 1.38999-.0782 1.75577,0 .25665.0549.44566.32076.70232.37567 .34434.0737.70231,0 1.05346,0h2.80924 .70232c.11706,0 .26839-.0885.35115,0s-.0827.28713 0,.37568c.0115.0123.96831,0 1.05347,0h2.80925 .70231c.11705,0 .24646-.056.35116,0 .14805.0792.20309.29648.35115.37568 .22399.11983 1.66189-.10042 1.75578,0 .0827.0885-.0827.28713 0,.37568 .0115.0123.9683,0 1.05347,0" fill="none" stroke="#8e8e8e" stroke-width=".4748"/>
<path d="m182.41737,140.95517c.12299.95457 1.55223.21503 2.04493.41502 .24099.0978.44065.31721.68165.41504 .10781.0438.2272,0 .34081,0 .56804,0 1.14711-.13566 1.70411,0 .24911.0606.44065.3172.68165.41502 .44437.18038.9189.23464 1.36329.41502 .58039.23559 1.11058.64937 1.7041.83005 .66129.20131 1.41204-.30827 2.04493,0 .29835.14532.3768.70631.68165.83005 .4311.17499.90886,0 1.36328,0 .19066,0 3.00971-.0808 3.40822,0 .35437.0719.66682.35316 1.02246.41502 .44987.0783.90886,0 1.36329,0h3.0674c.22722,0 .45885-.0543.68164,0 .35228.0858.67393.30893 1.02247.41503 .2904.0884.72197,0 1.02247,0h1.70411 .34082c.11361,0 .2392-.0619.34081,0 .14371.0875.19713.32753.34083.41502 .10159.0618.22721,0 .34082,0h.68164 2.38576" fill="none" stroke="#8e8e8e" stroke-width=".49164"/>
<path d="m204.42953,136.04519h10.46775 2.36367c.11256,0 .25808-.0838.33768,0s-.0796.27185 0,.35568l.67533.35569c0,.11856-.0796.27185 0,.35569 .0348.0366 1.60417-.0295 1.68835,0 .30202.10601.39059.5614.67534.71136 .31836.16768.6677.26476 1.01301.35569 .28888.076 1.35084,0 1.68834,0 .11256,0 .237-.053.33767,0 .14238.075.1953.2807.33767.35569 .27014.14227.74288-.14228 1.01301,0 .14237.075.18666.30266.33766.35568 .21357.075.45023,0 .67535,0h.67533 .33768c.11255,0 .28732-.10601.33767,0 .10064.21209 0,.47425 0,.71137 0,.11856-.0796.27185 0,.35569s.23699-.053.33766,0c.14238.075.18666.30266.33767.35568s1.20042-.0792 1.35068,0c.14237.075.1953.28069.33767.35568 .27013.14228.74287-.14227 1.013,0 .14238.075.1953.28071.33768.35569 .10274.0542.86093,0 1.013,0" fill="none" stroke="#8e8e8e" stroke-width=".45303"/>
<path d="m227.9401,131.26932c.63695.24802 1.2595.55385 1.91085.74407 .20598.0602.42876-.0486.63695,0 .32919.077.63695.24803.95543.37204s.64373.22639.95542.37204c.22041.10298.40667.30477.63695.37203 .20598.0602.42876-.0486.63695,0 2.88872.67491-1.66307.1292 2.54781.74408 1.43311.20926.56247-.2434 2.22932,0 .43432.0635.84059.29972 1.2739.37203 .31527.0526.63695,0 .95542,0h2.5478 2.86628c.31848,0 .64313-.0729.95542,0 .23278.0543.40666.30478.63696.37204 .20597.0602.42463,0 .63694,0h.95543 2.5478 7.96187" fill="none" stroke="#8e8e8e" stroke-width=".44997"/>
<path d="m107.1886,161.93481h3.36592c.71398,0 1.43089.0646 2.14194,0 4.85805-.44165-1.72221-.12897 2.14195-.61199 .50605-.0633 1.01998,0 1.52997,0 .40799,0 .82569.0885 1.22397,0 .53619-.11915 1.00385-.45415 1.52996-.61198 .49815-.14945 1.0282-.16915 1.52996-.306 .62236-.16973 1.20339-.48547 1.83596-.61198 3.57057-.71412-1.80346,1.15302 3.05992-.30599 .43691-.13108.77869-.51304 1.22397-.61199 .49784-.11063 1.01998,0 1.52996,0h1.83596c.40799,0 .81913.0506 1.22397,0 .4173-.0522.80667-.25383 1.22397-.30599 .40484-.0506.82569.0885 1.22397,0 .53619-.11916.99135-.50427 1.52996-.61199 .50009-.10001 1.0231.0563 1.52996,0 .41798-.0464.80668-.25383 1.22397-.30599 .40484-.0506.82154.0671 1.22397,0 1.44784.89585 2.02684-.65971 3.05993-.91798 .1979-.0495.40799,0 .61198,0h1.22397c.204,0 .42259.0758.61199,0 .34145-.13658.57652-.4754.91798-.61198 .37881-.15153.82816.099 1.22397,0 .22126-.0553.40799-.204.61198-.306l1.22397-.61198c.204-.102.38834-.26126.61199-.30599 .40526-.0811 2.15967.11531 2.44794,0 .26786-.10715.35395-.48297.61198-.61199 .18246-.0912.40799,0 .61199,0 .30599,0 .61793.06.91798,0 .22364-.0447.39072-.25067.61198-.30599 .49476-.12369 1.02691.0838 1.52996,0 1.3223-.22038.84927-.6713 1.83596-.91798 .1979-.0495.42952.0912.61198,0 .25804-.12902.35395-.48297.61199-.61198 .18246-.0912.40799,0 .61198,0h.91798c2.2612,0-1.15936.0912 1.22397-.306 .40244-.0671.83692.12902 1.22397,0 .27369-.0912.34413-.50484.61199-.61198 .2841-.11364.61385.0338.91797,0 .61664-.0685 1.22177-.21825 1.83596-.30599 .10097-.0144.20704.0247.30599,0 .31292-.0782.62949-.16175.91798-.306 1.21452-.60725-1.35239-.0967 1.22397-.61198 .33999-.068 1.27497.102 1.52996,0 .26786-.10714.37195-.45196.61199-.61199 .0849-.0566.20399,0 .30599,0 .40799,0 .82008.0577 1.22397,0 .3193-.0456.6017-.24273.91798-.30599 .20003-.04.40799,0 .61198,0 .50999-.20399 1.00888-.43829 1.52997-.61198 .0968-.0323.20399,0 .30599,0 .50999,0 1.02988.10001 1.52996,0 .22364-.0447.39072-.25068.61199-.306 .1979-.0495.42952.0912.61198,0 .25804-.12901.37195-.45195.61199-.61198 .16973-.11316.43706.10495.61198,0 .43731-.26239.82574-.59939 1.22397-.91798 .11264-.0901.16455-.2777.30599-.30599 .40007-.08.81598,0 1.22397,0 .306,0 .62769.0968.91798,0 .34889-.1163.62377-.39133.91798-.61199 .1154-.0865.16605-.271.30599-.30599 .29686-.0742.61199,0 .91798,0 .102,0 .21129.0379.30599,0 .42352-.16941.80045-.44258 1.22397-.61198 .0947-.0379.204,0 .30599,0 .204,0 .41196.04.61199,0 .31628-.0633.59982-.25297.91798-.306 .30183-.0503.61198,0 .91797,0 .204,0 .42258.0758.61199,0 .34145-.13658.57652-.4754.91798-.61198 .37881-.15152.82816.099 1.22397,0 .22126-.0553.38834-.26126.61198-.30599 .19184-.0384 1.60628.0765 1.83596,0 .13684-.0456.18597-.22598.30599-.306 .18977-.12651.39562-.23387.61198-.30599 .0968-.0323.20923.0323.306,0 .21637-.0721.39072-.25068.61198-.30599 .19791-.0495.42258.0758.61199,0 .34145-.13658.57652-.4754.91797-.61199 .18941-.0758.40799,0 .61199,0 .30599,0 .61793.06.91798,0 .22364-.0447.40799-.20399.61198-.30599 .40799,0 .82008.0577 1.22397,0 .85014.59522.78145-.50135 1.22397-.61198 .29686-.0742.61793.06.91798,0 .22364-.0447.39072-.25068.61199-.306 .1979-.0495.40799,0 .61198,0 .50999,0 1.02691.0838 1.52996,0 .86078.64257.77668-.52252 1.22397-.61198 .40007-.08.82008.0577 1.22397,0 .31931-.0456.6017-.24274.91798-.30599 .20003-.04.40799,0 .61199,0h1.22397c.20399,0 .41845.0645.61198,0 2.62719-.87573.003-.38325 2.14195-.91798 .41899-.10475 1.4885.11582 1.83595,0 .43274-.14425.79124-.46774 1.22397-.61199 .19353-.0645.41077.0335.61199,0 2.13281-.35547.45857-.30599 1.83595-.30599h.91798c.102,0 .22113.0566.30599,0 .24004-.16003.35395-.48297.61199-.61198 .18246-.0912.40799,0 .61198,0 .306,0 .62113.0742.91798,0 .13994-.035.16605-.27101.30599-.306 .29686-.0742.61199,0 .91798,0h.91798c.20399,0 .42953.0912.61198,0 .25804-.12901.3383-.52075.61199-.61198 .38705-.12902.82008.0577 1.22397,0 .3193-.0456.6017-.24274.91798-.30599 .20003-.04.40799,0 .61198,0 .30599,0 .61793.06.91798,0 .55383.18443.56909-.49569.91798-.61199 .19352-.0645.41195.04.61198,0 .31628-.0633.6017-.24274.91798-.30599 .55474-.11095 1.66515.15893 2.14195,0 .34888-.1163.56909-.49569.91798-.61199 1.74017,0 .20145.13685 1.52996-.30599 .32619-.10873.94955.18294 1.22397,0 .18977-.12651.14472-.45071.30599-.61198 .14425-.14425.42953.0912.61199,0 .12901-.0645.17697-.24149.30599-.306 .0912-.0456.20399,0 .30599,0 .0515,0 2.08098.0305 2.14195,0 .25803-.12901.35395-.48296.61198-.61198 .18246-.0912.41195.04.61199,0 .31628-.0633.6017-.24274.91798-.30599 .20003-.04.40799,0 .61198,0h1.22397c.204,0 .44225.11315.61199,0 .18976-.12652.11622-.48548.30599-.61199 .16973-.11316.40799,0 .61198,0h.61199c1.39296,0 .0175.14425.91798-.30599 .19304-.0965 1.33692.0965 1.52996,0 .25803-.12902.35395-.48297.61198-.61199 .0912-.0456.204,0 .306,0h.30599 .30599c.102,0 .21476.0456.30599,0 .12902-.0645.17698-.24148.306-.30599 .0912-.0456.20399,0 .30599,0 .13843,0 1.75441.0408 1.83595,0 1.27347-.63673-.32711.0211.306-.61198 .40799-.40799.30599.50998.30599-.306" fill="none" stroke="#8e8e8e" stroke-width=".4"/>
<path d="m401.87042,175.86025 79.29938-19.25688c-79.26757,19.29561-.0539.0815-79.29938,19.25688z" fill="none" stroke="#fff" stroke-width="1.5"/>
</g>
</svg>
